<svg xmlns="http://www.w3.org/2000/svg" viewBox="0 0 480 480" fill="none" shape-rendering="auto" aria-hidden="true"><!-- Generated by DiceBear (https://dicebear.com) --><metadata xmlns:rdf="http://www.w3.org/1999/02/22-rdf-syntax-ns#" xmlns:xsi="http://www.w3.org/2001/XMLSchema-instance" xmlns:dc="http://purl.org/dc/elements/1.1/" xmlns:dcterms="http://purl.org/dc/terms/"><rdf:RDF><rdf:Description><dc:title>Custom Avatar</dc:title><dc:creator>Ashley Seo</dc:creator><dc:source xsi:type="dcterms:URI">https://www.figma.com/community/file/881358461963645496</dc:source><dcterms:license xsi:type="dcterms:URI">https://creativecommons.org/licenses/by/4.0/</dcterms:license><dc:rights>Remix of “Custom Avatar” (https://www.figma.com/community/file/881358461963645496) by “Ashley Seo”, licensed under “CC BY 4.0” (https://creativecommons.org/licenses/by/4.0/)</dc:rights></rdf:Description></rdf:RDF></metadata><defs><g id="head-base-f7e2f058"><path d="M264.2 5.4s131.6 20.6 121.6 208c0 .8 15.2 11 16.4 12a77 77 0 0 1 23.5 36.3c13.8 51.4-35.8 104.2-76 118.3q-22.7 7.6-46.7 8.2c-103.2 3-240-62.6-247-190.9q-.3-6.9-.2-13.8a203 203 0 0 1 15.4-70s57.5-142.6 193-108.1" fill="#c99c62"/><path d="M389.1 215.5A57 57 0 0 0 386 226a40 40 0 0 0 8.5 30.3 42 42 0 0 0 33 15.7c-3.2-31.7-29-50.7-38.3-56.5m-185.5 83.3c24.5-5.3 39.6-31 33.9-57.5s-30.2-43.8-54.6-38.5-39.6 31-33.9 57.5 30.2 43.7 54.6 38.5" fill="#DC2400" opacity=".1" style="mix-blend-mode:multiply"/><path opacity=".1" d="M323.3 224.6s21-19.8 37-1.2Z" fill="black"/><path d="M128.8 323.6C59.4 358.4-3.7 271.1 16.5 222c12.9-31.3 50.4-33.8 72.2-5.1a185 185 0 0 1 29.1 59" fill="#c99c62"/><path opacity=".1" d="M71.6 245.7c9 9 16.1 22.6 25 30-1.7-12.5-4.3-26-10.4-37.3-6.2-11.5-17.5-21-29-20.3-14.3 1-26 17.6-27.5 32.7 1-9 19-15.1 26-14.3 10.8 20.4 15 60.7 15 60.7 9-22.8 5.3-40.7.9-51.5" fill="black"/></g><g id="mouth-teethSmile-f7e2f058"><path d="M147.7 64.4c9.3.2 18.3-2.5 26-10.5 4-4.2 8.2-6.5 14-3 13.9 8.7 17.1 30.2 13.4 44.6a63 63 0 0 1-30.7 36.8c-38.2 22.4-67.6 17.4-106.8 3-30.8-11.2-72.5-33.9-62-72.9 13.2-48.3 69.6-25 101.4-12 13.5 5.5 29.6 13.5 44.7 14" fill="white"/><path d="m109.5 147.2-6-.8L126 59.7l5.7 1.9zm79.7-30.2-5 5.3-13-66q1.3-1 2.5-2.4l2.7-2.4zm-130-81.6L26.8 117l-5-3.7 31.4-79z" fill="#D1D3D4"/></g><g id="eyes-starstruck-f7e2f058"><path d="M59.1 74.8c0 14.8-9.3 26.8-28.6 24.3-14-3-21.3-8.8-21.3-24.3 0-16.2 7.7-27 21.4-29.2C51.4 42.3 59 60 59 74.8m76.3-3.5c0 11.8-4.8 24.4-17.1 23-10.4-1.3-13-16.3-13-23.7 0-13 5.9-25.1 14.4-25.2 9.2 0 15.8 14.1 15.7 25.9" fill="#2A1200"/><path d="M118.3 54.4c.3-1 1.7-1.1 2-.2l2.6 9q.3.7 1 .6l5-.8c.9 0 1.5.8 1 1.5l-4.2 7.1v.8l2.5 8.8c.3 1-1 1.8-1.6 1l-3.7-3.7a1 1 0 0 0-1.5.1l-5.6 7c-.6.7-1.8.3-1.7-.7l.7-10.3q0-.4-.3-.7l-5.5-5.7c-.6-.5-.2-1.6.6-1.7l5.2-.8q.6 0 .8-.8zM34.2 53a1 1 0 0 1 1.8 0l4.8 11.6q.3.7 1 .6l9.7-1.2a1 1 0 0 1 .9 1.6l-7.2 8.2a1 1 0 0 0-.2 1l4.4 10.9a1 1 0 0 1-1.4 1.2l-8.4-5.7a1 1 0 0 0-1.2.1L26.8 91a1 1 0 0 1-1.6-1L27 77.8a1 1 0 0 0-.4-1l-9-6a1 1 0 0 1 .4-1.9l9.8-1.2q.6 0 .8-.6z" fill="white"/><path d="M47.3 14c-13.2-4-28.4-.8-39.5 8.2-3.6 3-5.2 8.7-2.4 12.9 2.6 3.8 8 5.6 11.8 2.5q1.6-1.4 3.6-2.6c.3-.3 1.4-.7 1.7-1l.6-.3a38 38 0 0 1 6.2-2.3l1.9-.3a35 35 0 0 1 6.4-.3l2 .3q2.1.4 4.1 1c4.3 1.2 9.4-2.5 10.2-7.2.8-5.2-2-9.6-6.6-11m91.6 10.2c-6.5-5.4-14.7-8-22.6-7.4a8 8 0 0 0-5.7 3.3 10 10 0 0 0-1.5 6.8 10 10 0 0 0 3.4 6.2 9 9 0 0 0 6.3 2h1.2q1.8.1 3.5.5a24 24 0 0 1 3.9 2l1.3.9a9 9 0 0 0 6.3 2 8 8 0 0 0 5.7-3.3c1.2-2 2-4.4 1.6-6.8q-.7-3.7-3.4-6.2" fill="#71472D"/></g><g id="hair-bowlCutHair-f7e2f058"><path d="M442 262.5c-25-104-115.5-123-152.5-121.5C125.1 143 88.7 276.2 91 348.5c1-2 3-3.5 3-3.5 13-7 20.5-5 23-5 43.5 2 58.8 53.5 56 75.5 7.9 7.4 18.7.2 23.3-2.9l.2-.1c3.6-2.4 0-13.5 0-20-9-42-7-102-4.5-102 2 0 29.5-2.3 40.5-4-.8-10.4-3.7-40.3 0-45.5-3.2 5.2 10.2 36.8 11.5 43 49.5 5 150.5-13 153.5-14.5 2.4-1.2-1-27.8-3-41 7.6 7.2 13.8 31.7 15 41 9.6-.8 25.7-5 32.5-7" fill="#605de4"/><path d="M302 157c23.3 1.7 77.4 16.2 107 61-11.7-24.3-49.4-70.6-107-61m48 48c7 9 21.2 33.6 22 60 5-10.7 7.6-37.6-22-60m-199 84c4.8-53.6 40-93 57-106-64 20.8-78 89.3-77 121 .8-40 23.7-74 35-86-10.4 18.4-14.3 55-15 71" fill="black" fill-opacity=".2"/></g><g id="accessories-catEars-f7e2f058"><path d="M108.5 5.9c11.1-17.1 55.7 14.7 77.2 33-29.2-1.8-45.2 37.3-50.4 56.4-9.2 9-24.5 10.7-30.7 10.7-3.4-26.3-7.3-83 3.9-100.1" fill="#A09B9B"/><path d="m101.7 74.4-.3-7 11.6 4zm.9 12.7 1.4 14c7.3-2.7 15.8-5.4 19.4-6.6z" fill="#C4C4C4"/><path d="M185.7 39c-28.5 9.7-45.4 41.2-50.3 55.7C113 66.8 101.7 18 113.3 5.6c9.3-10 52.1 18 72.4 33.3" fill="#FEB3A4"/><path d="M136 93c5.5-15 22.2-44.7 49.7-54l-5.9-4.4c-7.6-2.6-18-5-30.1-5.1C129.4 29 131.8 70 135.9 93" fill="#FFE7E2"/><path d="M304 56.9a25 25 0 0 1 13 10.7c1-19.4 0-57.3-13.3-57.7-8-.3-21.3 7.7-33.3 16.7A164 164 0 0 1 304 56.9" fill="#A09B9B"/><path d="M317.2 74.8c0-18-2.6-60.3-11.4-62.2-7-1.5-18 7.6-26.6 20.4a167 167 0 0 1 38 41.8" fill="#FEB3A4"/><path d="M317.2 74.8q0-6.4-.5-15.3-3-7-8.2-15.2c-4.5-7.1-11.8-6.5-19.2-2.8a168 168 0 0 1 28 33.3" fill="#FFE7E2"/></g><clipPath id="clip-f7e2f058"><rect width="480" height="480" rx="0" ry="0"/></clipPath></defs><g clip-path="url(#clip-f7e2f058)"><use transform="matrix(.85682 0 0 .85439 52 75.4)" href="#head-base-f7e2f058"/><use transform="matrix(.85472 0 0 .855 222 253.2)" href="#mouth-teethSmile-f7e2f058"/><use transform="matrix(.85472 0 0 .855 261.6 170.8)" href="#eyes-starstruck-f7e2f058"/><use transform="matrix(.85472 0 0 .85667 1.8 -47.6)" href="#hair-bowlCutHair-f7e2f058"/><use transform="matrix(.85472 0 0 .85667 85.6 71)" href="#accessories-catEars-f7e2f058"/></g></svg>